<svg width="14" height="11" viewBox="0 0 14 11" fill="none" xmlns="http://www.w3.org/2000/svg">
<path fill-rule="evenodd" clip-rule="evenodd" d="M14.001 5.66954C14.001 5.53011 13.9483 5.3964 13.8545 5.29781C13.7607 5.19922 13.6336 5.14383 13.501 5.14383H1.70795L4.85495 1.83603C4.90144 1.78715 4.93832 1.72912 4.96348 1.66526C4.98864 1.60139 5.00159 1.53294 5.00159 1.46382C5.00159 1.39469 4.98864 1.32625 4.96348 1.26238C4.93832 1.19852 4.90144 1.14049 4.85495 1.09161C4.80847 1.04273 4.75328 1.00396 4.69254 0.977507C4.6318 0.951054 4.5667 0.937439 4.50095 0.937439C4.43521 0.937439 4.37011 0.951054 4.30937 0.977507C4.24863 1.00396 4.19344 1.04273 4.14695 1.09161L0.146955 5.29734C0.100392 5.34617 0.0634487 5.40418 0.0382423 5.46805C0.0130358 5.53192 6.10352e-05 5.60039 6.10352e-05 5.66954C6.10352e-05 5.73869 0.0130358 5.80716 0.0382423 5.87103C0.0634487 5.9349 0.100392 5.99291 0.146955 6.04175L4.14695 10.2475C4.19344 10.2964 4.24863 10.3351 4.30937 10.3616C4.37011 10.388 4.43521 10.4016 4.50095 10.4016C4.5667 10.4016 4.6318 10.388 4.69254 10.3616C4.75328 10.3351 4.80847 10.2964 4.85495 10.2475C4.90144 10.1986 4.93832 10.1406 4.96348 10.0767C4.98864 10.0128 5.00159 9.94439 5.00159 9.87527C5.00159 9.80614 4.98864 9.73769 4.96348 9.67383C4.93832 9.60997 4.90144 9.55194 4.85495 9.50306L1.70795 6.19526H13.501C13.6336 6.19526 13.7607 6.13987 13.8545 6.04128C13.9483 5.94269 14.001 5.80897 14.001 5.66954Z" fill="#A9A9A9"/>
</svg>
