<svg width="52" height="53" viewBox="0 0 52 53" fill="none" xmlns="http://www.w3.org/2000/svg">
<circle cx="25.9682" cy="26.3629" r="25.2182" stroke="#9F938B" stroke-width="1.5"/>
<path d="M29.5431 14.7907C29.5431 14.5445 29.4946 14.3007 29.4004 14.0732C29.3062 13.8458 29.1681 13.6391 28.994 13.465C28.8199 13.291 28.6132 13.1529 28.3858 13.0587C28.1583 12.9644 27.9146 12.916 27.6684 12.916H18.7194C18.2282 12.919 17.7579 13.1149 17.4099 13.4615C17.0619 13.8081 16.8641 14.2776 16.859 14.7688C16.854 15.2599 17.0423 15.7333 17.3831 16.087C17.724 16.4406 18.1902 16.6461 18.6812 16.6591V35.6288C18.6802 36.5398 18.9553 37.4297 19.4701 38.1813C19.9849 38.9329 20.7153 39.511 21.5651 39.8393C22.4149 40.1676 23.3442 40.2308 24.2306 40.0205C25.117 39.8102 25.9189 39.3363 26.5307 38.6613C27.2206 39.3495 28.0942 39.8243 29.047 40.0288C29.4031 40.103 29.766 40.1404 30.1298 40.1406C30.8027 40.142 31.4692 40.0107 32.0913 39.7542C32.7133 39.4977 33.2787 39.121 33.7549 38.6456C34.2312 38.1703 34.609 37.6056 34.8667 36.9841C35.1244 36.3625 35.257 35.6962 35.2568 35.0233C35.2295 33.9878 34.9142 32.9803 34.3462 32.114L30.6728 25.287C30.6219 25.1889 30.5446 25.107 30.4496 25.0505C30.3547 24.994 30.2458 24.9652 30.1353 24.9672C30.0252 24.9677 29.9172 24.9981 29.8229 25.0552C29.7287 25.1123 29.6517 25.194 29.6004 25.2915L27.7076 28.8812V16.6609C28.1972 16.6506 28.6633 16.4492 29.0064 16.0997C29.3494 15.7502 29.542 15.2804 29.5431 14.7907ZM23.1944 38.9269C22.32 38.9259 21.4817 38.5781 20.8634 37.9598C20.2451 37.3415 19.8973 36.5032 19.8963 35.6288V16.664H26.4925V31.1857C26.4925 31.1857 25.8221 32.4848 25.6971 32.7546V22.5825C25.6971 22.4214 25.6331 22.2669 25.5192 22.1529C25.4053 22.039 25.2507 21.975 25.0896 21.975H21.2996C21.2198 21.9749 21.1407 21.9906 21.067 22.0211C20.9933 22.0516 20.9263 22.0964 20.8699 22.1528C20.8134 22.2092 20.7687 22.2762 20.7382 22.35C20.7076 22.4237 20.692 22.5027 20.692 22.5825V35.375C20.691 35.9165 20.8659 36.4437 21.1904 36.8772C21.5148 37.3108 21.9713 37.6272 22.4911 37.779C23.0109 37.9307 23.5659 37.9096 24.0727 37.7187C24.5794 37.5279 25.0105 37.1776 25.301 36.7206C25.4186 37.0605 25.5729 37.3864 25.7614 37.6927C25.4532 38.0774 25.0625 38.3881 24.6182 38.6017C24.174 38.8153 23.6874 38.9264 23.1944 38.9269ZM24.4821 23.1915V35.375C24.4849 35.5458 24.4536 35.7155 24.3902 35.8742C24.3267 36.0329 24.2324 36.1773 24.1125 36.2991C23.9927 36.4209 23.8498 36.5177 23.6922 36.5837C23.5346 36.6498 23.3655 36.6838 23.1946 36.6838C23.0237 36.6838 22.8545 36.6498 22.6969 36.5837C22.5393 36.5177 22.3965 36.4209 22.2766 36.2991C22.1568 36.1773 22.0624 36.0329 21.999 35.8742C21.9355 35.7155 21.9043 35.5458 21.9071 35.375V23.1915H24.4821ZM30.1433 26.8673L33.2828 32.7021C33.2869 32.7105 33.2916 32.7186 33.2967 32.7264C33.7526 33.4085 34.0105 34.2035 34.0417 35.0233C34.0426 35.6039 33.9135 36.1774 33.664 36.7016C33.4144 37.2259 33.0507 37.6876 32.5996 38.053C32.142 38.422 31.6077 38.6841 31.0358 38.8201C30.4639 38.9561 29.8689 38.9625 29.2942 38.839C28.5862 38.6858 27.9352 38.3376 27.4147 37.8338C26.8942 37.33 26.525 36.6907 26.3488 35.9881C26.0495 34.7272 26.5918 33.6534 27.1671 32.5164L30.1433 26.8673ZM27.6694 15.4489H18.7194C18.6296 15.4544 18.5396 15.4414 18.455 15.4108C18.3703 15.3801 18.2929 15.3325 18.2273 15.2709C18.1618 15.2092 18.1096 15.1347 18.0739 15.0521C18.0382 14.9695 18.0198 14.8805 18.0198 14.7905C18.0198 14.7005 18.0382 14.6115 18.0739 14.5288C18.1096 14.4462 18.1618 14.3718 18.2273 14.3101C18.2929 14.2485 18.3703 14.2008 18.455 14.1702C18.5396 14.1396 18.6296 14.1266 18.7194 14.1321H27.6694C27.7592 14.1266 27.8492 14.1396 27.9339 14.1702C28.0185 14.2008 28.0959 14.2485 28.1615 14.3101C28.227 14.3718 28.2792 14.4462 28.3149 14.5288C28.3506 14.6115 28.369 14.7005 28.369 14.7905C28.369 14.8805 28.3506 14.9695 28.3149 15.0521C28.2792 15.1347 28.227 15.2092 28.1615 15.2709C28.0959 15.3325 28.0185 15.3801 27.9339 15.4108C27.8492 15.4414 27.7592 15.4544 27.6694 15.4489Z" fill="#9F938B"/>
</svg>
