<svg width="24" height="24" viewBox="0 0 24 24" fill="none" xmlns="http://www.w3.org/2000/svg">
<path d="M12 1.3125C12.8525 1.3125 13.67 1.6582 14.2728 2.27356C14.8756 2.88891 15.2143 3.72351 15.2143 4.59375V5.25H8.78571V4.59375C8.78571 3.72351 9.12436 2.88891 9.72716 2.27356C10.33 1.6582 11.1475 1.3125 12 1.3125ZM16.5 5.25V4.59375C16.5 3.37541 16.0259 2.20697 15.182 1.34548C14.3381 0.483983 13.1935 0 12 0C10.8065 0 9.66193 0.483983 8.81802 1.34548C7.97411 2.20697 7.5 3.37541 7.5 4.59375V5.25H3V18.375C3 19.0712 3.27092 19.7389 3.75315 20.2312C4.23539 20.7234 4.88944 21 5.57143 21H18.4286C19.1106 21 19.7646 20.7234 20.2468 20.2312C20.7291 19.7389 21 19.0712 21 18.375V5.25H16.5ZM4.28571 6.5625H19.7143V18.375C19.7143 18.7231 19.5788 19.0569 19.3377 19.3031C19.0966 19.5492 18.7696 19.6875 18.4286 19.6875H5.57143C5.23044 19.6875 4.90341 19.5492 4.66229 19.3031C4.42117 19.0569 4.28571 18.7231 4.28571 18.375V6.5625Z" fill="black"/>
</svg>
